<?xml version="1.0" encoding="UTF-8"?>
<svg xmlns:xodm="http://www.corel.com/coreldraw/odm/2003" xmlns="http://www.w3.org/2000/svg" xmlns:xlink="http://www.w3.org/1999/xlink" version="1.1" id="Layer_1" x="0px" y="0px" viewBox="0 0 2500 2500" style="enable-background:new 0 0 2500 2500;" xml:space="preserve">
<style type="text/css">
	.st0{fill:none;}
	.st1{fill:url(#SVGID_1_);}
	.st2{fill-rule:evenodd;clip-rule:evenodd;fill:#FFFFFF;}
</style>
<g id="Layer_x0020_1">
	<g id="_2082375990496">
		<rect y="0" class="st0" width="2500" height="2500"></rect>
		<g>
			
				<linearGradient id="SVGID_1_" gradientUnits="userSpaceOnUse" x1="1250" y1="2747.8899" x2="1250" y2="-252.1102" gradientTransform="matrix(1 0 0 -1 0 2497.8899)">
				<stop offset="0" style="stop-color:#F9A606"></stop>
				<stop offset="1" style="stop-color:#FBCC5F"></stop>
			</linearGradient>
			<circle class="st1" cx="1250" cy="1250" r="1250"></circle>
			<path class="st2" d="M775.9,661.3h476.2c289.6,0,509.2,155.7,590.9,382.2h148.3v136.9h-117.1c2.3,21.6,3.5,43.7,3.5,66.1v3.4     c0,25.2-1.5,50-4.4,74.3h118v136.9h-151.2c-83.8,223.4-301.7,377.6-588,377.6H775.9v-377.6H610.5v-136.9h165.5v-143.7H610.5     v-136.9h165.5L775.9,661.3L775.9,661.3z M909,1461.1v254.8h343c211.7,0,369-102,442.2-254.8H909L909,1461.1z M1735.1,1324.2h-826     v-143.7h826.2c3.1,22.6,4.6,45.8,4.6,69.4v3.4C1739.9,1277.4,1738.3,1301.1,1735.1,1324.2z M1252.1,784     c212.7,0,370.4,104.7,443.2,259.6H909.1V784H1252.1z"></path>
		</g>
	</g>
</g>
</svg>
